<?xml version="1.0" encoding="UTF-8"?>
<svg id="_レイヤー_2" data-name="レイヤー 2" xmlns="http://www.w3.org/2000/svg" viewBox="0 0 674.86 689.33">
  <defs>
    <style>
      .cls-1 {
        fill: #37342c;
      }

      .cls-2 {
        fill: #efefe7;
      }

      .cls-3 {
        fill: #c6d1cc;
      }

      .cls-4 {
        fill: #b2bbd1;
      }

      .cls-5 {
        fill: #3d3b31;
      }

      .cls-6 {
        fill: #e7e8e0;
      }

      .cls-7 {
        fill: #c96f72;
      }

      .cls-8 {
        fill: #d8d7e5;
      }

      .cls-9 {
        fill: #747d94;
      }

      .cls-10 {
        fill: #fdfdf9;
      }

      .cls-11 {
        fill: #d6d6e3;
      }

      .cls-12 {
        fill: #6e7a90;
      }

      .cls-13 {
        fill: #36332b;
      }

      .cls-14 {
        fill: #dae7d5;
      }

      .cls-15 {
        fill: #3b3730;
      }

      .cls-16 {
        fill: #717b93;
      }

      .cls-17 {
        fill: #d4807b;
      }

      .cls-18 {
        fill: #f6f6f1;
      }

      .cls-19 {
        fill: #fbfdf7;
      }

      .cls-20 {
        fill: #727e93;
      }

      .cls-21 {
        stroke: #9aa2bf;
      }

      .cls-21, .cls-22, .cls-23, .cls-24 {
        fill: none;
        stroke-miterlimit: 10;
        stroke-width: 12px;
      }

      .cls-25 {
        fill: #727c94;
      }

      .cls-26 {
        fill: #39352c;
      }

      .cls-27 {
        fill: #38352e;
      }

      .cls-28 {
        fill: #3c3930;
      }

      .cls-29 {
        fill: #f5f6ed;
      }

      .cls-30 {
        fill: #c69779;
      }

      .cls-31 {
        fill: #8aab86;
      }

      .cls-32 {
        fill: #35332c;
      }

      .cls-33 {
        fill: #3b372f;
      }

      .cls-34 {
        fill: #778298;
      }

      .cls-35 {
        fill: #332f27;
      }

      .cls-36 {
        fill: #73507f;
      }

      .cls-37 {
        fill: #c89c7f;
      }

      .cls-38 {
        fill: #38352d;
      }

      .cls-39 {
        fill: #727b94;
      }

      .cls-40 {
        fill: #35322b;
      }

      .cls-41 {
        fill: #fafcf6;
      }

      .cls-42 {
        fill: #fbfbf6;
      }

      .cls-43 {
        fill: #ccd5d0;
      }

      .cls-44 {
        fill: #38352b;
      }

      .cls-45 {
        fill: #3d3a32;
      }

      .cls-46 {
        fill: #323028;
      }

      .cls-47 {
        fill: #6f7992;
      }

      .cls-48 {
        fill: #afbaba;
      }

      .cls-49 {
        fill: #f8ddc8;
      }

      .cls-50 {
        fill: #78798f;
      }

      .cls-51 {
        fill: #f2f3eb;
      }

      .cls-52 {
        fill: #39362d;
      }

      .cls-53 {
        fill: #c7997a;
      }

      .cls-54 {
        fill: #cfb7bb;
      }

      .cls-55 {
        fill: #785187;
      }

      .cls-56 {
        fill: #fcf6f0;
      }

      .cls-57 {
        fill: #3d3a33;
      }

      .cls-58 {
        fill: #37342d;
      }

      .cls-22 {
        stroke: #d87f77;
      }

      .cls-59 {
        fill: #f7c8bf;
      }

      .cls-60 {
        fill: #b6bdd6;
      }

      .cls-61 {
        fill: #35322a;
      }

      .cls-62 {
        fill: #35312b;
      }

      .cls-63 {
        fill: #e3cad0;
      }

      .cls-64 {
        fill: #403d33;
      }

      .cls-65 {
        fill: #717c93;
      }

      .cls-66 {
        fill: #e29294;
      }

      .cls-67 {
        fill: #dbe8d6;
      }

      .cls-23 {
        stroke: #d8aa8a;
      }

      .cls-68 {
        fill: #f6d8d6;
      }

      .cls-69 {
        fill: #8cae89;
      }

      .cls-70 {
        fill: #3e3b31;
      }

      .cls-71 {
        fill: #e9e9e3;
      }

      .cls-24 {
        stroke: #8fb18a;
      }

      .cls-72 {
        fill: #ded5b9;
      }

      .cls-73 {
        fill: #fbfcf6;
      }
    </style>
  </defs>
  <g id="_レイヤー_1-2" data-name="レイヤー 1">
    <path class="cls-55" d="M671.95,300.21c3.63,26.79,3.67,53.03,1.17,79.92l-1.53,10.8c-6.39,45.04-20.4,88.18-43.3,127.85-34.97,60.58-85.54,107.47-148.46,138.04-67,32.57-142.41,40.77-215.14,24.14-54.8-12.53-105.19-39.01-147.45-76.15-30.93-27.18-56.32-59.92-75.48-95.45C-51.87,335.7,17.59,118.97,193.66,33.34c89.1-43.33,192.59-44.53,282.39-2.97,96.94,44.86,166.89,132.97,190.27,237.14l5.62,32.7Z"/>
    <path class="cls-19" d="M432.99,651.88c-162.48,53.84-333.58-38.37-391.08-196.35-24.91-68.43-26.31-139.63-4.55-209.12,28.98-92.52,98.99-167.77,189.12-203.32,149.56-58.98,316.15,9.21,389.11,150.32,23.42,45.3,36.16,94.93,37.05,146.36,2.43,139.91-86.89,268.11-219.66,312.11Z"/>
    <path class="cls-27" d="M190.44,115.88c.79,1.95-4.15,5.15-5.5,3.9l-17.17-27.1c-1.9-3.01,5-6.08,7.69-4.62l20.69,11.24c-5.07-9.83-15.45-19.08-8.53-21.89,1.78-.72,3.68.04,4.83,1.86l15.57,24.62c1.17,1.85-2.42,3.89-3.84,4.68-4.14,2.28-15.36-7.15-25.02-11.16,3.6,6.95,8.36,11.28,11.28,18.47Z"/>
    <path class="cls-1" d="M562.73,191.62c-1.41,1.04-3.31-.1-4.06-.77-1.15-1.04-2.46-3.01-1.63-4.91l10.24-23.23-14.91,11.47c-2.26,1.74-4.14,1.96-5.89-.11s-1.09-3.91,1.2-5.62l24.25-18.06c2.6,1.15,5.67,4.74,4.61,7.06l-10.08,22.15,17.82-12.35c2.39-.12,5.42,4.49,3.36,6.01l-24.92,18.37Z"/>
    <path class="cls-28" d="M262.8,80.67c.32,3.13-5.81,4.21-6.47,1.68l-7.97-30.37c-.64-2.42,4.02-3.29,5.6-3.15,1.98.17,3.63,1.67,5.33,3.48l14.29,15.19c-1.26-7.9-4.71-13.87-5.07-21.47-.1-2.12,5.83-3.46,6.36-1.55l8.6,31.26c-2.89,3.67-7.33,3.58-10.2.53l-15.67-16.68c1.36,7.47,4.4,13.26,5.2,21.07Z"/>
    <path class="cls-15" d="M381.17,72.5c-.31,2.44-4.22,2.28-5.96,1.54-1.55-.66-2.57-2.12-3.49-4.37l-8.99-21.88c-.78,7.99-.7,15.04-2.14,22.49-.33,1.72-2.49,1.74-3.54,1.7-.97-.04-3.51-.66-3.32-2.28l3.76-31.84c.24-2.02,6.51-1.31,7.53.51,4.48,7.99,6.6,16.3,10.8,25.01.92-10.65-.64-24.28,5.11-24.44,3.04-.09,4.26,1.97,3.86,5.14l-3.61,28.42Z"/>
    <path class="cls-58" d="M519.39,135.35c1.68.42,5.07-3.36,4.43-4.95-.45-1.12-2.57-2.12-2.75-3.03-.28-1.44.56-3.14,2.06-3.92,1.86-.97,7.99,3.47,10.25,7.8l-9.86,11.56c-7.06.61-13.66-4.39-16.48-10.29-3.18-6.69-1.04-14.32,3.96-19.7,4.23-4.55,10.07-7.29,16.09-6.23,10.19,1.8,16.5,12.82,12.21,15.36-2,1.19-4.37.23-5.07-2.04-1.56-5.12-6.82-7.66-11.92-5.71-4.41,1.68-7.47,5.61-8.74,10.14s.88,9.63,5.8,11.02Z"/>
    <path class="cls-62" d="M552.57,147.54c1.53,1.7,1.58,3.22.45,4.77-1.21,1.66-3.52,1.85-5.16-.06l-5.68-6.65c-2.52,1.4-4.54,3.1-6.43,5.49l8.7,9.59c1.48,1.63.09,3.92-1.37,4.65-1.74.86-3.37.18-4.84-1.47l-12.53-14.15,22.96-21.2c1.25-1.15,3.13-1.81,4.38-.49l10.72,11.31c1.22,1.29,1.86,3.13.95,4.55-.69,1.08-3.08,2.66-4.47,1.16l-8.44-9.03c-1.87,1.39-3.58,2.78-5.21,4.88l5.97,6.65Z"/>
    <path class="cls-13" d="M436.47,74.43l-8.37-2.76-2.57,7.78,10.63,3.65c1.86.64,2.96,1.97,3.01,3.38.26,7.12-12.43.83-22.9-4.01l9.89-29.49c.55-1.65,2.18-2.92,4.08-2.21l16.28,6.07c1.3.49,1.15,2.68.97,3.59-.16.82-.85,2.8-2.37,2.3l-12.11-4.01c-1.5,1.92-2.22,4.47-2.51,6.96l8.38,2.79c1.92.64,2.62,2.07,2.19,3.83-.41,1.66-1.94,3.01-4.63,2.12Z"/>
    <path class="cls-45" d="M600.21,236.13c-2.72-2.63-3.27-6.38-5.04-10l-7.47,3.62c1.49,7.16,6.92,12.49,2.43,14.61-1.57.74-3.88.21-4.71-1.87l-6.25-15.76c-.58-1.46,2.08-3.07,3.28-3.57l28.29-11.79,7.82,18.04c.61,1.4-.55,2.54-1.24,3.19-.94.87-3.32,1.64-4.03.05l-5.25-11.73c-2.75.45-4.78,1.53-6.92,3.14l3.67,9.91c.49,1.33-3.25,3.44-4.58,2.16Z"/>
    <path class="cls-52" d="M67.74,304.14l2.26-12.23c.3-1.63,2.3-1.8,3.22-1.83s3.32.57,3.09,2.08l-2.63,17.4c-.38,2.52-2.53,3.31-4.79,2.91l-27.05-4.72c-2.44-.43-4.02-1.97-3.53-4.51l2.81-14.29c.45-2.29,2.12-3.29,3.98-2.94s2.77,2.05,2.38,4.33l-1.77,10.16,7.47,1.28,2.34-10.43c.33-1.46,5.31-1.03,5.18.47l-.93,10.8,7.96,1.5Z"/>
    <path class="cls-28" d="M95.43,217.1l5.66-10.9c.8-1.54,2.72-1.62,3.91-1.12,1.51.63,2.54,2.66,1.56,4.61l-6.67,13.32c-1.05,2.1-3.31,3.74-5.78,2.44l-24.12-12.73c-2.21-1.17-3.3-3.02-1.99-5.58l6.77-13.21c.74-1.44,2.29-1.8,3.33-1.68,1.37.16,3.3,1.79,2.52,3.51l-4.9,10.83c1.99,1.51,3.81,2.4,6.25,3.22l4.24-7.47c.86-1.52,2.63-1.63,3.83-1.25,1.78.57,2.44,2.44,1.45,4.43l-3.59,7.21c2.09,1.89,4.19,3.07,7.52,4.36Z"/>
    <path class="cls-13" d="M64.49,236.25c3.42,7.18,14.34,10.26,19.42,5.28,4.71-4.61.23-11.01,5.45-11.47,1.32-.12,3.03.71,3.58,2.87,1.56,6.13-2.13,12.51-6.08,15.8-9.5,7.88-26.77.56-29.5-10.14-1.61-6.28.44-12.98,5.29-16.68,1.74-1.33,3.94-.93,4.69.02,3.4,4.31-6.23,7.2-2.85,14.32Z"/>
    <path class="cls-58" d="M578.15,199.41c-3.69,4.33-2.98,9.94,1.54,12.86,1.51.97,1.94,2.73,1.49,4-.35,1.01-2.62,2.7-4.26,1.97-8.21-3.67-11.11-14.1-6.23-21.78,4.19-6.58,11.36-10.98,19.42-10.57,7.92.41,14.14,7.24,14.49,14.85.13,2.74-.73,4.39-2.98,4.57-1.67.13-3.71-.91-3.73-3.32-.05-5.11-3.59-8.66-8.83-8.41-4.32.21-7.96,2.37-10.91,5.83Z"/>
    <path class="cls-45" d="M402.89,77.32c-.72,3.08-7.64,1.35-7.09-1.21l5.58-25.95c-4.56-2.58-9.41-1.53-8.97-5.54.19-1.76,1.69-3.34,3.98-2.81l22.1,5.07c1.68.39,1.6,2.41,1.41,3.28-.26,1.17-.89,2.99-2.59,2.69l-8.35-1.48-6.07,25.94Z"/>
    <path class="cls-40" d="M130.17,168.96l-19.32-16.42-4.47,5.02c-1.38,1.56-3.34,1.38-4.44.66-2.03-1.34-1.8-3.56-.26-5.35l13.86-16.11c1.19-1.39,3.11-.99,4.07-.22,1.41,1.13,1.95,3.07.54,4.8l-4.28,5.27c6.87,5.82,13.6,11.03,19.76,17.42,1.38,1.43.52,3.18-.26,4.08-1.19,1.37-3.27,2.48-5.2.84Z"/>
    <path class="cls-62" d="M484.79,108.41c1.76,1.13,2.29,2.41,2.16,3.91s-1.89,3.85-3.63,2.8l-14.44-8.71c-1.67-1.01-2.39-3.28-1.32-5.03l14.44-23.54c1.22-1.98,2.79-2.65,4.31-2.24,2.41.65,4.01,2.77,2.69,5.04l-12.88,22.21,8.65,5.55Z"/>
    <path class="cls-5" d="M463.05,95.8c1.99,1.01,1.02,3.15.46,4.03-.99,1.55-2.93,1.93-4.91.99l-12.3-5.81c-1.36-.64-2.69-1.7-2.91-2.69-.3-1.33.27-2.83.94-4.21l11.96-25.06c.94-1.98,4.25-1.39,5.54-.15s1.66,3.07.61,5.33l-10.19,22.07,10.82,5.5Z"/>
    <path class="cls-57" d="M346,69.53c-.02,3.14-7.07,2.92-7.09.23l-.18-29.46c-.01-2.22,1-3.61,2.39-4.2,1.58-.67,5.11-.24,5.1,2.04l-.21,31.38Z"/>
    <path class="cls-64" d="M150.04,147.1c1.72,1.71.7,4.03-.42,5.16-.96.98-3.09,2.42-4.88.66l-19.62-19.29c-1.68-1.65-1.89-4.02-1.06-5.65.66-1.29,3.56-3.16,5.17-1.56l20.8,20.68Z"/>
    <path class="cls-70" d="M496.07,121.32c-1.15,1.63-3.72.76-4.59.18-.99-.65-2.96-2.51-1.85-4.1l17.67-25.27c1.21-1.73,3.94-.83,5.03.19s2.19,2.81.88,4.68l-17.13,24.32Z"/>
    <path class="cls-32" d="M169.4,109.73c6.76,7.81,7.7,17.65.28,24.63-7.13,6.71-17.29,5.36-24.28-2.17-6.9-7.43-7.85-18.55.15-25.07,7.99-6.51,17.22-5.06,23.85,2.61Z"/>
    <path class="cls-41" d="M157.15,130.97c-6.58-2.81-12.22-11.43-8.46-17.33,1.11-1.74,3.56-3.92,6.79-3.3,8.27,1.58,14.61,12.36,10.29,18.24-1.63,2.22-5.06,3.9-8.62,2.39Z"/>
    <path class="cls-27" d="M301.87,74.03c-3.86.36-7.36,1.79-11.15.55l-4.25-33.15c5.7-1.53,11.38-2.39,16.71-1.99,8.48.64,12.88,7.23,13.88,14.96,1.3,10.04-4.26,18.61-15.19,19.62Z"/>
    <path class="cls-42" d="M307.26,64.19c-2.27,3.42-6.38,3.74-9.49,3.86l-3.1-21.79c3.53-.66,8.19-1.2,11.08,1.66,3.87,3.84,4.71,11.45,1.51,16.27Z"/>
    <path class="cls-61" d="M68.15,274.77l10.21,3.53c2.18.75.37,6.96-1.76,6.99l-32.29-8.99c.8-6.04,1.99-10.96,4.14-15.88s6.78-6.7,11.71-5.8c4.23.77,8.12,3.72,8.59,9.08,5.15-1.62,9.46-3.31,15.02-3.67.36,1.8.07,5.74-1.81,6.87-3.7,2.22-8.03,2.56-12.23,3.78-1.37.4-3.28,3.48-1.59,4.07Z"/>
    <path class="cls-51" d="M61.14,273.11c-3.49-1.21-5.91-1.97-9.07-2.53.42-5.3,2.23-8.97,6.16-8.67,2.28.17,4.38,2.11,4.37,4.91-.01,2.08-.32,3.75-1.46,6.28Z"/>
    <path class="cls-33" d="M111.08,193.47c2.23,1.72,2.92,3.46,1.99,5.28-1.34,2.64-4.08,2.91-6.46,1.21l-24.08-17.21c2.15-5.77,5.44-11.11,9.96-15.03,4.17-3.62,9.37-3,13.3-.33,6.93,4.7,5.98,13.72-.55,21.57l5.84,4.5Z"/>
    <path class="cls-29" d="M99.74,185.6c-2.43-2.19-5.45-3.22-7.54-5.49-1.61-1.75,1.68-5.06,3.31-6.12,1.88-1.23,5.91-1.33,7.43,1.83s-.4,7.3-3.2,9.78Z"/>
    <path class="cls-46" d="M238.09,82.42l-7.15,3.17c-2,.89,1.4,6.62-1.54,9.76-1.04,1.11-5.56,1.78-5.68-.31l-2-33.11c-.18-2.94,5.96-4.25,8.67-3.8l21.91,25.26c1.22,1.41-2.12,3.81-3.49,3.95-5.98.64-5.2-7.36-10.72-4.92Z"/>
    <path class="cls-71" d="M236.91,76.04c-2.19,1.88-4.53,2.3-7.65,3.24l-1.48-14.22,9.12,10.98Z"/>
    <path class="cls-36" d="M376.59,608.95c-39.42,6.62-78.79,2.51-115.67-9.7-101.54-33.61-172.19-126.09-179.34-232.84-4.72-70.53,18.18-140.46,64.37-194.24,58.9-68.58,149.75-102.08,239.16-84.86,53.96,10.39,103.04,38.28,140.03,78.52,34.07,37.07,55.97,82.26,65.37,131.67,10.57,55.58,3.41,112.63-20.48,163.91-36.12,77.55-108.38,133.25-193.45,147.54Z"/>
    <path class="cls-19" d="M402.86,594.36c-43.27,12.6-87.43,12-129.79-.21-102.27-29.48-174.98-120.54-182.65-226.78-5.73-79.41,24.93-158.84,84.27-212.32,96.56-87.02,239.58-84.21,333.01,5.39,79.49,76.23,101.16,198.2,54.22,297.75-31.1,65.96-88.63,115.65-159.06,136.16Z"/>
    <path class="cls-49" d="M349.25,365.42c6.58,48.26,45,87.01,93.19,94.03,3.23,33.52-10.18,65.99-35.8,88.26-40.2,34.94-100.68,33.69-140-2.66-23.47-21.7-35.14-53.76-32.39-85.36,22.44-3.5,42.19-13.48,59.33-29.21,18.73-17.18,30.38-40.95,33.95-65.77.12-.77.37-1.9.94-1.97,2.05-.24,17.74.19,19.44.64l1.34,2.04Z"/>
    <path class="cls-30" d="M349.53,540.9c-.01,2.89-1.75,4.5-3.64,4.67-5.86.54-4.19-7.37-6.75-9.82-8.5-8.13-23.32-5.37-37.72-11.26-12.42-5.08-19.14-18.92-13.4-31.79,5.44-12.18,13.11-23.03,19.84-34.78l24.69-43.12c9.55-16.68,3.65-30.74,10.6-31.8,8.03-1.22,5.28,22.57-3.04,37.27l-20.22,35.72-23.12,39.62c-3.28,5.62-1.07,13.83,3.87,17.56,5.28,3.98,11.61,4.98,17.92,6.2l17.47,3.39c8.29,1.61,13.55,8.98,13.51,18.13Z"/>
    <path class="cls-37" d="M366.88,526.39c-3.13-.24-4.28-5.67-4.36-7.78,4.67-.04,8.94.03,12.36-3.05,3.03-2.73,5.01-7.25,4.54-12.09-1.21-12.31-15.22-14.98-9.12-19.77,1.28-1,3.61-1.4,5.48-.54,9.73,4.46,13.99,14.54,12.32,25.08-1.59,10.04-9.71,19.04-21.21,18.15Z"/>
    <path class="cls-53" d="M360.13,519.63c-3.01,2.6-10.13-9.66-26.86-3.32-2.07.79-5.26.1-6.14-1.82-.64-1.4-.2-4.22,1.92-5.69,10.15-7.04,24.9-4.26,32.21,5.74,1.18,1.61.04,4.08-1.13,5.09Z"/>
    <path class="cls-68" d="M225.96,247.9l2.66,2.83c9.81,40.49,43.84,72.67,84.78,80.26l2.97,2.5c1.47,7.6,2.22,15.54,1.14,23.16-3.66,2.64-8.12,4.32-13.36,5.06-10.54,3.64-20.51,8.4-29.93,14.28l-1.89-1.33,1.33-3.9c3.28-3.26,18.13-18.55,18.32-21.3.13-1.78-10.27-15.06-12.52-17.48-37.71-40.45-91.29-40.37-128.19,1.01-1.9,2.13-11.88,14.6-11.99,15.64-.14,1.24,13.17,16.72,15.7,19.27,29.26,29.43,70.01,37.1,104.8,13.92l2.18,1.09-.95,3.96c-15.81,16.88-28.86,36.52-32.83,59.67l-2.56,3.31c-48.98,4.69-94.61-27.55-107.07-74.68-12.83-48.52,11.07-98.76,57.18-119.35,15.98-7.14,33.18-9.36,50.24-7.91Z"/>
    <path class="cls-59" d="M315.77,368.92c-7.99,40.44-39.74,72.15-80.29,79.76-.66-1.25-1.14-2.6-1.02-4.03.91-10.46,11.8-29.43,18-38.26,14.2-20.25,38.78-37.03,63.26-40.99l.05,3.52Z"/>
    <path class="cls-63" d="M240.15,250.16c4.38,1.12,8.41,2.58,12.54,4.05,5.11,5.65,10.11,11.39,15,17.22,4.94,3.21,10.62,4.62,17.04,4.24,3.4,5.85,8.12,10.54,14.16,14.07l3.33,5.12c2.48-.42,2.65-.2,1.2,1.82l5.96,10.95c2.73-1.34,4.61,4.81,2.01,6.14l2.34,6.69.19,4.58c-34.37-4.91-70.95-38.31-78.81-72.24-.53-2.27-.39-3.51,2.28-3.36l2.77.71Z"/>
    <path class="cls-54" d="M290.47,278.97c2.71-1.69,7.52,5.29,6.77,7.75.3,1.16,1.01,2.03,1.65,3.02-6.55-1.25-12.42-5.45-14.97-12.67-11.39,1.69-20.1-3.75-25.27-13.42-1.74-3.25-5.63-5.64-5.96-9.43,14.28,5.09,27.06,13.96,37.78,24.76Z"/>
    <path class="cls-17" d="M272.33,374.66c-3.94,1.79-7.49,5.18-10.38,8.26l-13.79,7.48c-12.47,5.48-26.46,8.76-40.32,6.73-29.88-4.37-54.71-22.69-70.36-48.43,20.67-35.97,64.48-59.63,104.57-44.4,20.48,8.61,42.73,24.7,51.77,45.34-5.98,9.71-13.31,17.83-21.48,25.02Z"/>
    <path class="cls-41" d="M284.26,349.01c-16.86,24.61-49.55,44.87-79.56,38.52-23.46-4.96-43.59-19.07-57.13-38.87,20.05-29.17,57.01-49.81,90.96-35.87,17.83,7.14,35.79,19.65,45.74,36.21Z"/>
    <circle class="cls-66" cx="216.31" cy="348.34" r="33.62"/>
    <path class="cls-7" d="M223.38,330.95l.73,7.12,7.07,3.39c5.58,1.99,3.4,15.51-4.24,21.21-5.94,4.42-14.15,5.26-20.64,1.28-8.59-5.26-10.72-16.21-6.5-24.7s15.26-11.94,23.58-8.29Z"/>
    <path class="cls-56" d="M231.17,341.46c-2.7.99-6.3.52-8.21-1.63-2.19-2.46-2.23-6.64.41-8.88,3.54-2.99,8.26-2.54,10.65.8,2.59,3.63,1.39,8.16-2.85,9.71Z"/>
    <path class="cls-20" d="M363.79,289.98c-.87,1.27-2.17,3.62-2.8,5.01-2.03-2.74-3.35-5.66-2.38-9.33l5.17,4.32Z"/>
    <path class="cls-67" d="M451.11,449.88l-2.34-2.41c-1.47-7.45-3.64-14.71-6.49-21.77l.96-3.23,2.31-1.52c13.07,2.26,20.63-2.04,27.59-12.73l14.02-28.06,17.83-22.31c32.52-45.67-16.36-101.63-65.22-72.69l-3.26-.17-.38-3.74c4.85-9.83,9.4-19.91,11.49-30.74l2.48-2.78c38.27-3.65,75.32,14.63,95.7,47.23s20.59,73.91.54,106.71c-20.05,32.8-56.9,51.46-95.21,48.2Z"/>
    <path class="cls-43" d="M438.07,249.62l3.48.07c-3.61,18.46-14.83,36.24-28.39,49.23-10.34,9.91-33.71,25.08-48.01,26-3.58.23-3.58-.08-3.15-3.5,2.16-7.72,5.23-15.16,9.14-22.16,2.16-2.14,4.81-3.54,7.96-4.21,3.45-1.71,5.96-4.62,7.51-8.74,5.87-.02,10.64-1.92,14.29-5.71,1.66-4.27,2.87-8.73,3.63-13.38,5.11-1.87,10.23-3.75,15.35-5.65,2.87-2.91,5.58-5.97,8.1-9.2,3.32-1.09,6.68-2.01,10.1-2.76Z"/>
    <path class="cls-48" d="M427.97,252.38c-3.84,17.51-22.13,12.27-22.54,17.29-.43,5.28-.53,10.07-4.15,13.48s-8.18,5.01-13.72,4.61c-2.44,8.45-7.95,9.77-16.44,11.52,3.46-6.2,7.57-12.02,12.25-17.37,2.47-1.09,5.21-1.7,8.22-1.85l2.79-1.61c1.63-4.26,3.57-8.23,5.83-11.89,8.46-6.13,17.82-10.91,27.75-14.18Z"/>
    <path class="cls-3" d="M383.38,281.9c5.02-5.73,10.67-10.88,16.84-15.35-1.36,2.97-1.1,6.6-2.24,9.88-2.16,6.17-9.45,7.05-14.6,5.47Z"/>
    <path class="cls-31" d="M443.24,421.47c-5.4-1.41-10.6-3.81-14.79-7.78s-6.68-9.02-8.97-14.32l-.24-3.74c.09-2.94,2.79-4.64,5.17-4.06,2.32.41,4.26,2.25,5.11,4.91,2.53,7.91,8.63,14.08,16.67,16.19,8.19,2.15,15.77-1.31,19.61-8.64l14.7-28.12,18.93-23.91c11.67-14.74,11.46-34.02,1.46-50.15-11.89-19.19-38.33-24.8-57.07-11.58-11.86,8.37-17.48,22.2-17.04,36.43.1,3.1-1.16,4.96-3.95,5.1-8.72.42-4.16-20.2.46-32.36,4.64-4.72,7.48-11.24,13.21-15.44,19.9-14.58,49.24-12.78,66.73,5.62,18.13,19.07,18.5,47.52,3.35,68.42l-17.74,22.17-13.93,27.93c-6.06,12.15-18.9,16.67-31.66,13.33Z"/>
    <path class="cls-14" d="M424.41,392.57l-4.13-1.48c-15.82-16.24-36.3-27.3-58.35-32.36l-3.44-2.78c-.51-7.19-.25-14.41.76-21.54l3.54-2.71c21.2-4.45,40.62-14.95,56.25-29.89l4.24-1.38,1.43,1.88c-1.87,4.46-8.02,25.88-2.83,28.42,1.14.56,2.66-.28,2.82-1.63-1.89-30.49,24.98-54.54,54.94-45.03s40.17,46.53,21.37,70.14c-14.21,16.01-24.76,33.13-33.85,52.49-12.77,18.22-34.46,8.26-40.3-10.24-1.43-1.09-2.25-2.39-2.44-3.9Z"/>
    <path class="cls-69" d="M449.68,321.18c7.77,5.23,18.2,5.37,22.61,17.45,2.93,8.04,1.55,15.69-3.21,21.9l-15.54,20.32c-1.96,2.56-4.84,3.99-7.71,3.89-3.01-.11-5.92-2.1-7.3-5.4-2.89-6.93-1.03-14.69,4.35-20.2,3.82-3.91,5.48-8.34,2.26-13.46-5.04-8.05-8.4-17.43-6.03-26.96,2.57-10.32,11.07-17.23,20.24-19.71,10.65-2.88,21.38.57,29.11,8.76,8.64,9.16,9.48,24.47,3.26,35.01-.93,1.58-3.15,1.44-4.05,1.7-.95.28-3.21-1.14-2.64-2.87,3.03-9.21,3.36-19.75-3.17-27.49-5.33-6.32-14.25-8.46-21.92-5.61-5.33,1.98-10.55,7.06-10.27,12.68Z"/>
    <path class="cls-72" d="M419.48,400.37c2.6,1.06,4.58,3.53,5.94,7.4,2.3,2.3,3.31,4.61,3.03,6.93,7.25,9.37,12.14,21.12,13.47,33.1l-3.87.12c-39.75-8.69-70.46-40.28-78.03-80.26.61-.41,1.24-.78,1.91-1.02.63-.23,1.24-.42,1.8-.33,20.96,3.2,42.68,18.44,55.76,34.08Z"/>
    <path class="cls-73" d="M348.73,337.87c-.73,5.26-.92,10.75-.47,16.03-.18.78-.44,1.95-1.04,2.05-2.27.36-16.92,1.06-17.98.12-.35-.31-.55-.78-.71-1.3.64-6.4.07-12.85-.81-19.17l1.57-1.76c6.42.36,12.86.49,19.3.37l.14,3.66Z"/>
    <path class="cls-8" d="M442.49,238.08c-3.23.5-6.33,1.07-9.32,1.51l-1.22-2.59c2.54-7.87,1.19-15.91-3.25-22.82-.16-12.22-7.68-21.26-18.19-26.71-4.5-15.62-17.38-21.94-31.93-25.95-8.85-4.99-17.52-8.92-27.28-3.77-13.84-6.69-29.92-5.52-43.44,1.57-11.27-1.01-21.4,3.24-28.48,12.07-10.22,2.43-15.66,8.78-20.61,17.59-13.36,12.89-20.39,29.47-14.98,47.93l-1.19,2.93c-3.09-.64-6.11-1.31-9.15-1.65-3.22-31.93,7.09-63.24,30.11-86.43,21.38-21.55,52.19-33.2,82.53-30.81,60.27,4.74,103.17,58.23,96.39,117.14Z"/>
    <path class="cls-11" d="M354.96,308.72l-4.55,17.11c-.6.56-1.22,1.08-1.92,1.49-3.77,2.21-18.22,1.57-22.14-1.42l-.92-3.14c-3.2-10.89-7.01-21.68-12.41-31.74,2.58-1.59,5.94-2.07,10.1-1.43,3.84-.39,7.61-1.2,11.3-2.45,8.32,4.53,19.31,11.79,20.54,21.59Z"/>
    <path class="cls-34" d="M373.55,275.81c.9-.05.99.9,0,1.14-1.4,1.91-4.25,3.78-4.71,5.7-2.12,2.68-7.14,2.53-10.3,1.97-3.51,1.62-7.52,2.61-12.02,2.98,3.67,3.37,7.29,6.94,10.88,10.7l.27,3.41c-1.15,1.75-2.16,4.98-2.7,7.01l-5.4-7.13c-3.74-5.48-9.7-8.86-15.3-12.62-6.88,2.98-14.04,3.18-21.24,2.04-1.12-2.09-3.33-3.83-4.16-6.34,5.5.71,11.68,2.56,16.92.3,4.01-1.73,7.38-2.28,11.82-3.03l35.94-6.13Z"/>
    <path class="cls-4" d="M368.14,281.71c-.52,3.05-3.06,5.19-4.52,7.67-.99,1.77-1.86,1.36-3.14.19l.7,5c-.86,2.3-1.62,4.73-2.86,6.93-5.39-5.74-11-9.99-17.6-13.99l13.53-3.36c4.68-1.16,9.06-2.55,13.89-2.43Z"/>
    <path class="cls-60" d="M424.38,242.36c-1.65.15-4.15,2.99-5.92,1.67-.58-.88-1.21-.92-1.89-.12-1.06,2.61-4.02,3.15-6.65,4.51l-7.34,3.8c-2.45.48-5.09.47-7.92-.03,1.68.19,2.62.56,2.79,2.54-.16.51-.55,1.45-1.25,1.92-6.83,4.57-12.46,9.91-18.07,15.91l-4.58,3.26c-.76,1.2-2.09,2.1-3.98,2.7-15.75,2.1-31.28,5.2-46.58,9.31-5.62,1.02-10.32-.03-14.12-3.16-.67-2.03-4.89-3.69-4.26-6.81.58-1.09,1.37-1.95,2.39-2.57-2.09,1.24-3.95,1.43-5.58.55l-10.98-11.92c-1.4-1.57-1.4-1.95-1.32-3.72.55-12.51,24.54-25.87,36.56-24.16l7.25-2.38c12.36-9.76,26.25-10.1,40.11-3.43-2.28-2.24-3.46-4.44-3.53-6.6,4.66-4.88,7.44-10.14,8.34-15.79-2.89,11.33-11.89,19.43-24.02,16.2-9.04.48-17.35,3.8-24.92,9.96-6.76.14-13.38.96-19.86,2.45l-1.78-2.14-3.09-17.59c.14,6.91,1.05,13.79,2.73,20.65-6.7,8.31-15,9.54-20.64-.51.8,2.31.21,3.29-1.71,4.59-7.21,4.91-15.72-7.87-16.17-14.3-.59,11.09,8.14,17.58,18.77,14.15,7.6,3.59,8.21,6.29,3.17,13.28-.7,3.17-2.06,5.3-4.08,6.37l-17.78-12.06c-11.66-4.5-11.52-12.4-11.21-23.55-4.08-12.58,1.69-17.79,13.24-21.11l4.57-13.16c3.35-5.8,8.32-6.82,14.53-5.89,2.15-6.3,5.89-10.03,11.2-11.19,8.73-.13,16.77-.79,23.87-6.54.74-.6-7.96,1.35-8.3,3.28-5.34,1.53-10.85,2.35-16.54,2.45-5.53.81-9.08,4.62-12.01,9.15-11.11,1.77-15.83,9.62-18.7,19.98-11.96,3.05-17.63,12.37-12.72,24.39l.26,8.4c1.54,3.57,1.81,6.61.81,9.11-2.43-1.14-5.38-2.43-7.84-2.95-4.41-1.61-5.2-5.74-6-9.98-2.75-14.56,4.53-31.83,16.55-40.36,3.33-9.75,10.65-15.28,19.82-19.15,8.87-9.32,17.42-11.22,29.59-11.56,9.93-3.99,21.88-8.3,32.57-4.07,6.41,2.54,5.51,4.16,1.95,9.1-.57,6.69-.48,13.57.27,20.63-8.23,6.65-14.5,19.1-9.01,29.11-1.89-10.66,1.45-21.28,9.84-28.31,3.58-6.89,8.47-11.89,14.66-15.01,18.69-3.44-1.94-2.29-6.28,3.07-6.05,9.16-11.07,1.2-9.4-6.16,3.39-15.02,24.21-13.63,34.19-5.78,5.76.86,31.64,13.6,26.73,21.03-6.4,1.22-12.53,3.26-18.39,6.13-8.87-9.21-22.31-13.12-24.71,3.14.91,6.32-.4,11.47-6.55,14.46,6.7-.48,9.44-5.47,8.22-14.98,2.77-14.86,19.51-9.33,22.19,2.88,5.02-8.67,13.83-11.11,22.84-6.87,12.87,6.06,16.84,14.8,19.25,27.96,5.19,8.83,6.87,20.29-3.56,25.79Z"/>
    <path class="cls-9" d="M433.17,239.59c-2.37.35-5.93,2.51-8.79,2.76.14-2.11,1.91-2.91,3.05-4.45,3.66-4.95,3.26-12.1.19-17.33-5.63-9.59-.16-19.77-19.12-29.83-8.12-4.31-17.1-2.26-21.03,6.4-.31.68-2.35.38-2.9-.1-.64-.56-1.32-1.52-1.59-3.08-.92-5.48-7.74-9.67-13.16-7.71-7.48,2.71-1.72,12.89-6.46,19.97-2.49,3.71-8.67,4.84-10.54,1.71-1.4-2.35,8.68-2.59,7.3-12.1-.94-6.45,2.75-14.23,9.41-15.61s12.93,2.7,17.33,8.11c4.8-3.5,10.06-5.41,17.09-5.28-5.94-14.24-19.11-13.69-32.94-21.69-7.69-4.44-17.76-3.23-23.24,3.84-2.98,3.84-1.69,9.21.2,12.91,7.91-12.07,23.78-11.66,23.75-7.64-.02,3.42-11.87-.94-18.91,8.95l-6.15,8.64c-8.37,7.15-11.35,16.96-9.04,28.1.16,1-3.14,1.29-3.99.03-5.29-7.93-1.27-23.87,9.1-31.16.27-10.23-4.99-17.88,2.82-24.87-6.86-5.24-22.33-4-28.43-.58-11.6,6.5-20.44-.5-30.5,9.48-3.72,3.69-7.96,6.17-12.91,8.04-5.68,3.4-9.47,8.75-12.02,15.07-14.89,10.44-21.86,34.37-12.08,49.13l-6.99-1.45c-5.19-15.43-2.61-32.81,8.62-45.22,3.94-4.34,7.71-8.36,10.32-13.67,3.89-5.95,9.79-9.26,16.76-11.16,7.18-9.05,17.49-13.43,29.14-12.36,7.14-3.9,14.62-5.92,22.58-5.87,7.52-.84,14.55.89,21.29,4.36,6.59-3.93,13.5-2.93,20.44-.25,5.29,3.83,11.41,5.3,17.4,7.38,11.32,3.94,19.5,11.76,22.81,23.22,10.91,5.3,18.41,15,18.6,27.35,5.19,7.94,6.01,17.02,2.59,25.98Z"/>
    <path class="cls-16" d="M418.46,244.03c-.5.02-1.38.57-1.89-.12.07-2.17-.62-5.84-2.8-6.69-1.3,1.04-3,2.36-4.12,2.87-1.46.66-3.89-.25-3.76-2,4.89-2.7,7.53-6.37,8.36-9.89,1.38-5.83-1.68-8.94-3.75-13.46-2.91-6.34-5.15-12.14-12.82-14.25-.89-.24-2.09-2.25-1.52-3.06.61-.87,1.57-1.5,3.32-1.59,7.62,2.29,14.04,8.29,15.58,16.36,5.72,6.72,6.22,15.74,2,23.43,1.25,3.03,1.69,5.73,1.41,8.4Z"/>
    <path class="cls-12" d="M402.58,252.22c-1.63.84-2.45,2.93-5.14,2.51l-7.69-1.2c2.65-4.79,8.62-3.89,12.82-1.31Z"/>
    <path class="cls-25" d="M268.45,248.91l-11.01-4.68c-2.41-5.46-3.77-10.96-3.01-17.23-3.21-7.11-2.1-15.37,3.15-21.07,2.62-2.85,6.54-3.37,10.1-4.77,1.89-8.11,5.66-15.38,13.17-18.94l5.68-1.24c9.4-16.39,23.03-6.07,31.42-13.74,2.78-2.54,9.02-2.81,11.15,1.02,3.16,5.67,1.32,13.55-2.85,18.45-7.09,8.32-9.76,18-7.41,29.08.5,2.37,1.76,5.2-.54,7.92-7.4-5.23-1.72-15.58-9.2-16.94-3.66-.67-11.25.19-13.01,4.49-3.22,7.88-10.22,13.96-19.53,11.22,3.32-6.04,15.05-4.61,14.75-14.4-1.94-2.07-6.14-3.5-7.51-6.45-.92-2-.67-3.98,1.24-4.76,2.84-1.16,6.73,8.25,11.21,6.67,5.5-1.94,10.24-3.45,16.36-1.02l3.53-9.13c-8.57-.68-15.53-6.13-13.51-9.78,1.52-2.74,9.71,6.74,15.75,4.1,6.35-2.78,9.31-12.26,8.19-18.96l-11.9,6.34-13.08.87c-10.13.68-7.31,12.32-13.05,11.21-5.18-1-10.5.83-12.05,5.79l-3.04,9.72c-1.16,3.7-3.2,4.91-7.03,5.29-5.24.51-10.06,7.22-8.24,12.36,3.83,10.79-3.97,18.93,10.29,28.61Z"/>
    <path class="cls-47" d="M290.43,263.92c-1.03-1.12-2.93-2.09-4.2-2.95.7-5.23,3.31-9.49,6.26-13.79l-5.96-4.18c-5.19,2.36-10.2,1.27-14.57-1.95-6.51-4.79-7.28-18.3-2.82-17.91,1.79,4.02,2.21,8.6,4.62,12.36,2.54,3.96,6.77,5.85,11.09,3.65l-1.57-5.34c-.44-1.49.57-2.53,1.7-2.36,1.73.26,4.82,10.91,11.04,10.72,3.52-.11,6.74-3.59,9.2-5.29-2.48-9.36-5.31-22.83-1.23-22.99,3.66-.14,2.55,11.86,5.59,21.13,9.68-5.24,16.7.31,22.11-4.89,8.52-6.94,18.77-9.7,29.71-7.13,8.39-2.25,14.21-9.45,14.68-18.58,8.57,2.54,1.69,11.99-5.26,20.5,1.99,1.43,5.26,4.63,4.41,6.54-1.62,1.96-4.98-.22-6.62-.84-13.25-5.01-21.91-3.87-32.71,3.56-4.66,3.2-8.8,4-14.4,4.22-13.22.53-29.49,11.41-31.03,25.52Z"/>
    <path class="cls-50" d="M304.61,277.85c-1.45-.11-2.3-1.04-3.19-2.01,1.93-.68,3.65-2.61,6.23-2.98,1.15-.16,1.93,3.1.71,4.24-.79.74-2.37,1.05-3.75.75Z"/>
    <path class="cls-65" d="M308.67,268.57c-3.11-5.5,1.18-10.37,6.08-12.55,12.05-5.37,26.15-3.06,35.98-13.14,12.14,5.3,26.46,3.49,36.04-5.44,14.56-13.57,4.17-28.42,7.2-30.48.96-.66,2.58-.55,3.45.97,3.65,8.64,3.54,18.45-1.55,26.33-9.35,14.47-26.28,20.3-42.88,14.67-8.11,4.96-17.14,7.07-26.63,8.63-7.2,1.04-12.7,3.91-17.68,11.01Z"/>
    <path class="cls-39" d="M332.95,272.77l-2.94.37c-.68.09-2.39-1.43-1.75-2.38,5.53-8.21,18.42-3.31,23.29-6.81,3.73-2.68,7.3-4.6,12.08-3.44,8.9,2.17,14.19-4.3,16.19-2.93,2.34,1.6-6,10.98-20.76,8.47-10.08,6.76-16.45,2.63-26.11,6.71Z"/>
    <path class="cls-26" d="M69.29,343.69l-32.82-2.69c-.68-6.4-.78-13.03,1.84-18.83,2.42-5.35,9.17-6.34,13.98-4.51,10.05,3.82,6.28,15.44,7.83,17.16s8.75-.81,11.16,2.66c.93,1.34.52,6.42-1.98,6.21Z"/>
    <path class="cls-10" d="M53.09,334.14c-3.19.67-6.57-.05-10.26-.41-.76-3.19-.08-6.59,2.6-8.38,1.99-1.33,4.88-1.03,6.44.71,1.39,1.54,2.01,3.8,1.22,8.09Z"/>
    <path class="cls-38" d="M603.91,281.23c.43,2.17-2.05,2.65-3.24,2.42s-2.54-.76-2.99-2.52l-3.48-13.56c-.57-2.24.72-4.23,2.98-4.79l29-7.27c2.11-.53,3.8,6.34,1.69,6.95l-26.2,7.57,2.23,11.2Z"/>
    <path class="cls-35" d="M623.96,340.27c-1.86,4.43-5.11,5.92-9.34,5.57-9.79-.82-11.46-13.38-9.39-24.91l32.94-1.6c2.95,9.79,3.08,21.88-4.09,24.01-3.71,1.1-6.59.75-10.12-3.08Z"/>
    <path class="cls-18" d="M620.09,327.61c.54,5.99.36,10.03-3.77,10.73-1.39.24-3.35-.02-4.27-1.61-1.53-2.65-1.63-5.86-.94-8.63l8.98-.49Z"/>
    <path class="cls-6" d="M633.38,327.03c.53.17,1.72,8.63-2.99,9.19-2.47.29-4.29-1.45-4.43-4.59-.06-1.27-.64-3.2.58-4,.53-.35,6.1-.84,6.84-.6Z"/>
    <path class="cls-44" d="M603.53,308.88c1.99-2.38,4.75-2.7,7.33-3.55l-1.4-10.05-8.03-2.09c-2.41-.63-2.59-4.92-1.14-7.83l33.92,6.5c2.46.47,3.7,7.96,1.51,9.34l-30.65,14.79c-2.28-.84-3.1-5.25-1.54-7.12Z"/>
    <polygon class="cls-2" points="629.15 297.16 616.68 302.3 615.45 295.22 629.15 297.16"/>
    <circle class="cls-23" cx="338.73" cy="466.27" r="107.57"/>
    <circle class="cls-21" cx="338.38" cy="224.55" r="107.57"/>
    <circle class="cls-24" cx="459.97" cy="348.9" r="107.57"/>
    <circle class="cls-22" cx="216.31" cy="348.66" r="107.57"/>
  </g>
</svg>